<?xml version="1.0" standalone="no"?>
<!DOCTYPE svg PUBLIC "-//W3C//DTD SVG 20010904//EN"
 "http://www.w3.org/TR/2001/REC-SVG-20010904/DTD/svg10.dtd">
<svg version="1.0" xmlns="http://www.w3.org/2000/svg"
 width="300.000000pt" height="300.000000pt" viewBox="0 0 300.000000 300.000000"
 preserveAspectRatio="xMidYMid meet">
<metadata>
Created by potrace 1.15, written by Peter Selinger 2001-2017
</metadata>
<g transform="translate(0.000000,300.000000) scale(0.100000,-0.100000)"
fill="#000000" stroke="none">
<path d="M1200 2979 c-260 -55 -489 -168 -692 -343 -252 -216 -435 -542 -493
-875 -20 -112 -20 -410 0 -522 34 -196 123 -419 233 -580 226 -334 563 -558
959 -638 145 -30 441 -30 586 0 264 53 493 165 699 343 252 216 435 542 493
875 20 112 20 410 0 522 -34 196 -123 419 -233 580 -226 334 -563 558 -959
638 -142 29 -453 29 -593 0z m595 -39 c293 -62 524 -188 741 -404 217 -218
341 -445 405 -746 19 -88 23 -136 23 -290 0 -154 -4 -202 -23 -290 -64 -301
-188 -528 -405 -746 -218 -217 -445 -341 -746 -405 -151 -33 -429 -33 -580 0
-301 64 -528 188 -746 405 -217 218 -341 445 -405 746 -33 151 -33 429 0 580
61 284 184 518 380 722 241 251 534 400 881 448 106 15 361 4 475 -20z"/>
<path d="M1380 2834 c-98 -12 -233 -39 -300 -61 -474 -157 -811 -537 -917
-1033 -28 -132 -25 -402 5 -539 108 -480 447 -857 906 -1006 162 -52 220 -60
436 -59 184 1 202 3 310 31 266 70 464 186 653 383 181 186 296 408 354 681
24 115 24 379 0 502 -55 272 -183 514 -378 708 -246 245 -563 382 -912 393
-67 2 -138 2 -157 0z m370 -100 c317 -52 604 -224 761 -455 22 -33 39 -62 37
-65 -3 -2 -474 -3 -1047 -2 l-1042 3 39 60 c171 264 515 445 912 479 73 6 238
-4 340 -20z"/>
</g>
</svg>
