<?xml version="1.0" standalone="no"?>
<!DOCTYPE svg PUBLIC "-//W3C//DTD SVG 20010904//EN"
 "http://www.w3.org/TR/2001/REC-SVG-20010904/DTD/svg10.dtd">
<svg version="1.0" xmlns="http://www.w3.org/2000/svg"
 width="528.000000pt" height="528.000000pt" viewBox="0 0 528.000000 528.000000"
 preserveAspectRatio="xMidYMid meet">
<metadata>
Created by potrace 1.15, written by Peter Selinger 2001-2017
</metadata>
<g transform="translate(0.000000,528.000000) scale(0.100000,-0.100000)"
fill="#000000" stroke="none">
<path d="M2390 5240 c0 -6 -42 -10 -105 -10 -85 0 -107 -3 -111 -15 -5 -11
-23 -15 -70 -15 -48 0 -66 -4 -70 -15 -4 -11 -21 -15 -56 -15 -31 0 -55 -6
-64 -15 -9 -8 -29 -15 -45 -15 -16 0 -29 -4 -29 -10 0 -5 -18 -10 -40 -10 -29
0 -40 -4 -40 -15 0 -11 -11 -15 -40 -15 -29 0 -40 -4 -40 -15 0 -9 -10 -15
-26 -15 -14 0 -32 -7 -40 -15 -9 -8 -29 -15 -45 -15 -16 0 -29 -4 -29 -10 0
-5 -11 -10 -25 -10 -14 0 -28 -7 -31 -15 -4 -8 -17 -15 -30 -15 -15 0 -24 -6
-24 -15 0 -10 -10 -15 -30 -15 -20 0 -30 -5 -30 -15 0 -9 -9 -15 -21 -15 -12
0 -32 -11 -45 -25 -13 -14 -32 -25 -44 -25 -11 0 -20 -7 -20 -15 0 -8 -7 -15
-15 -15 -8 0 -15 -7 -15 -15 0 -9 -10 -15 -26 -15 -26 0 -54 -20 -54 -39 0 -6
-13 -11 -30 -11 -20 0 -30 -5 -30 -15 0 -8 -7 -15 -15 -15 -8 0 -15 -7 -15
-15 0 -9 -9 -15 -21 -15 -13 0 -46 -25 -84 -65 -35 -36 -72 -65 -82 -65 -19 0
-53 -32 -53 -50 0 -6 -7 -10 -15 -10 -8 0 -15 -7 -15 -15 0 -8 -4 -15 -10 -15
-18 0 -50 -34 -50 -53 0 -10 -29 -47 -65 -82 -40 -38 -65 -71 -65 -84 0 -12
-6 -21 -15 -21 -8 0 -15 -7 -15 -15 0 -8 -7 -15 -15 -15 -10 0 -15 -10 -15
-30 0 -16 -5 -30 -11 -30 -19 0 -39 -28 -39 -54 0 -16 -6 -26 -15 -26 -8 0
-15 -7 -15 -15 0 -8 -7 -15 -15 -15 -8 0 -15 -9 -15 -20 0 -12 -11 -31 -25
-44 -14 -13 -25 -33 -25 -45 0 -12 -6 -21 -15 -21 -10 0 -15 -10 -15 -30 0
-20 -5 -30 -15 -30 -9 0 -15 -9 -15 -24 0 -13 -7 -26 -15 -30 -8 -3 -15 -17
-15 -31 0 -14 -4 -25 -10 -25 -5 0 -10 -13 -10 -29 0 -16 -7 -36 -15 -45 -8
-8 -15 -26 -15 -40 0 -16 -6 -26 -15 -26 -11 0 -15 -11 -15 -40 0 -29 -4 -40
-15 -40 -11 0 -15 -11 -15 -40 0 -22 -4 -40 -10 -40 -5 0 -10 -13 -10 -29 0
-16 -7 -36 -15 -45 -9 -9 -15 -33 -15 -64 0 -35 -4 -52 -15 -56 -11 -4 -15
-22 -15 -70 0 -47 -4 -65 -15 -70 -12 -4 -15 -26 -15 -111 0 -63 -4 -105 -10
-105 -6 0 -10 -90 -10 -250 0 -160 4 -250 10 -250 6 0 10 -42 10 -105 0 -85 3
-107 15 -111 11 -5 15 -23 15 -70 0 -48 4 -66 15 -70 11 -4 15 -21 15 -56 0
-31 6 -55 15 -64 8 -9 15 -29 15 -45 0 -16 5 -29 10 -29 6 0 10 -18 10 -40 0
-29 4 -40 15 -40 11 0 15 -11 15 -40 0 -29 4 -40 15 -40 9 0 15 -10 15 -26 0
-14 7 -32 15 -40 8 -9 15 -29 15 -45 0 -16 5 -29 10 -29 6 0 10 -11 10 -25 0
-14 7 -28 15 -31 8 -4 15 -17 15 -30 0 -15 6 -24 15 -24 10 0 15 -10 15 -30 0
-20 5 -30 15 -30 9 0 15 -9 15 -21 0 -12 11 -32 25 -45 14 -13 25 -32 25 -44
0 -11 7 -20 15 -20 8 0 15 -7 15 -15 0 -8 7 -15 15 -15 9 0 15 -10 15 -26 0
-26 20 -54 39 -54 6 0 11 -13 11 -30 0 -20 5 -30 15 -30 8 0 15 -7 15 -15 0
-8 7 -15 15 -15 9 0 15 -9 15 -21 0 -13 25 -46 65 -84 36 -35 65 -72 65 -82 0
-19 32 -53 50 -53 6 0 10 -7 10 -15 0 -8 7 -15 15 -15 8 0 15 -4 15 -10 0 -18
34 -50 53 -50 10 0 47 -29 82 -65 38 -40 71 -65 84 -65 12 0 21 -6 21 -15 0
-8 7 -15 15 -15 8 0 15 -7 15 -15 0 -10 10 -15 30 -15 17 0 30 -5 30 -11 0
-19 28 -39 54 -39 16 0 26 -6 26 -15 0 -8 7 -15 15 -15 8 0 15 -7 15 -15 0 -8
9 -15 20 -15 12 0 31 -11 44 -25 13 -14 33 -25 45 -25 12 0 21 -6 21 -15 0
-10 10 -15 30 -15 20 0 30 -5 30 -15 0 -9 9 -15 24 -15 13 0 26 -7 30 -15 3
-8 17 -15 31 -15 14 0 25 -4 25 -10 0 -5 13 -10 29 -10 16 0 36 -7 45 -15 8
-8 26 -15 40 -15 16 0 26 -6 26 -15 0 -11 11 -15 40 -15 29 0 40 -4 40 -15 0
-11 11 -15 40 -15 22 0 40 -4 40 -10 0 -5 13 -10 29 -10 16 0 36 -7 45 -15 9
-9 33 -15 64 -15 35 0 52 -4 56 -15 4 -11 22 -15 70 -15 47 0 65 -4 70 -15 4
-12 26 -15 111 -15 63 0 105 -4 105 -10 0 -6 90 -10 250 -10 160 0 250 4 250
10 0 6 42 10 105 10 85 0 107 3 111 15 5 11 23 15 70 15 48 0 66 4 70 15 4 11
21 15 56 15 31 0 55 6 64 15 9 8 29 15 45 15 16 0 29 5 29 10 0 6 18 10 40 10
29 0 40 4 40 15 0 11 11 15 40 15 29 0 40 4 40 15 0 9 10 15 26 15 14 0 32 7
40 15 9 8 29 15 45 15 16 0 29 5 29 10 0 6 11 10 25 10 14 0 28 7 31 15 4 8
17 15 30 15 15 0 24 6 24 15 0 10 10 15 30 15 20 0 30 5 30 15 0 9 9 15 21 15
12 0 32 11 45 25 13 14 32 25 44 25 11 0 20 7 20 15 0 8 7 15 15 15 8 0 15 7
15 15 0 9 10 15 26 15 26 0 54 20 54 39 0 6 14 11 30 11 20 0 30 5 30 15 0 8
7 15 15 15 8 0 15 7 15 15 0 9 9 15 21 15 13 0 46 25 84 65 35 36 72 65 82 65
19 0 53 32 53 50 0 6 7 10 15 10 8 0 15 7 15 15 0 8 4 15 10 15 18 0 50 34 50
53 0 10 29 47 65 82 40 38 65 71 65 84 0 12 6 21 15 21 8 0 15 7 15 15 0 8 7
15 15 15 10 0 15 10 15 30 0 17 5 30 11 30 19 0 39 28 39 54 0 16 6 26 15 26
8 0 15 7 15 15 0 8 7 15 15 15 8 0 15 9 15 20 0 12 11 31 25 44 14 13 25 33
25 45 0 12 6 21 15 21 10 0 15 10 15 30 0 20 5 30 15 30 9 0 15 9 15 24 0 13
7 26 15 30 8 3 15 17 15 31 0 14 5 25 10 25 6 0 10 13 10 29 0 16 7 36 15 45
8 8 15 26 15 40 0 16 6 26 15 26 11 0 15 11 15 40 0 29 4 40 15 40 11 0 15 11
15 40 0 22 5 40 10 40 6 0 10 13 10 29 0 16 7 36 15 45 9 9 15 33 15 64 0 35
4 52 15 56 11 4 15 22 15 70 0 47 4 65 15 70 12 4 15 26 15 111 0 63 4 105 10
105 6 0 10 90 10 250 0 160 -4 250 -10 250 -6 0 -10 42 -10 105 0 85 -3 107
-15 111 -11 5 -15 23 -15 70 0 48 -4 66 -15 70 -11 4 -15 21 -15 56 0 31 -6
55 -15 64 -8 9 -15 29 -15 45 0 16 -4 29 -10 29 -5 0 -10 18 -10 40 0 29 -4
40 -15 40 -11 0 -15 11 -15 40 0 29 -4 40 -15 40 -9 0 -15 10 -15 26 0 14 -7
32 -15 40 -8 9 -15 29 -15 45 0 16 -4 29 -10 29 -5 0 -10 11 -10 25 0 14 -7
28 -15 31 -8 4 -15 17 -15 30 0 15 -6 24 -15 24 -10 0 -15 10 -15 30 0 20 -5
30 -15 30 -9 0 -15 9 -15 21 0 12 -11 32 -25 45 -14 13 -25 32 -25 44 0 11 -7
20 -15 20 -8 0 -15 7 -15 15 0 8 -7 15 -15 15 -9 0 -15 10 -15 26 0 26 -20 54
-39 54 -6 0 -11 14 -11 30 0 20 -5 30 -15 30 -8 0 -15 7 -15 15 0 8 -7 15 -15
15 -9 0 -15 9 -15 21 0 13 -25 46 -65 84 -36 35 -65 72 -65 82 0 19 -32 53
-50 53 -6 0 -10 7 -10 15 0 8 -7 15 -15 15 -8 0 -15 4 -15 10 0 18 -34 50 -53
50 -10 0 -47 29 -82 65 -38 40 -71 65 -84 65 -12 0 -21 6 -21 15 0 8 -7 15
-15 15 -8 0 -15 7 -15 15 0 10 -10 15 -30 15 -16 0 -30 5 -30 11 0 19 -28 39
-54 39 -16 0 -26 6 -26 15 0 8 -7 15 -15 15 -8 0 -15 7 -15 15 0 8 -9 15 -20
15 -12 0 -31 11 -44 25 -13 14 -33 25 -45 25 -12 0 -21 6 -21 15 0 10 -10 15
-30 15 -20 0 -30 5 -30 15 0 9 -9 15 -24 15 -13 0 -26 7 -30 15 -3 8 -17 15
-31 15 -14 0 -25 5 -25 10 0 6 -13 10 -29 10 -16 0 -36 7 -45 15 -8 8 -26 15
-40 15 -16 0 -26 6 -26 15 0 11 -11 15 -40 15 -29 0 -40 4 -40 15 0 11 -11 15
-40 15 -22 0 -40 5 -40 10 0 6 -13 10 -29 10 -16 0 -36 7 -45 15 -9 9 -33 15
-64 15 -35 0 -52 4 -56 15 -4 11 -22 15 -70 15 -47 0 -65 4 -70 15 -4 12 -26
15 -111 15 -63 0 -105 4 -105 10 0 6 -90 10 -250 10 -160 0 -250 -4 -250 -10z
m540 -136 c1013 -133 1838 -877 2073 -1869 41 -171 57 -295 64 -485 23 -674
-221 -1303 -692 -1789 -419 -431 -945 -684 -1545 -742 -150 -14 -432 -6 -575
16 -956 149 -1724 816 -2001 1737 -112 375 -129 833 -43 1222 99 454 333 879
664 1211 542 542 1297 798 2055 699z"/>
<path d="M2495 4953 c-294 -14 -598 -91 -865 -219 -247 -119 -446 -259 -635
-449 -190 -189 -331 -389 -449 -635 -130 -273 -195 -525 -216 -841 -44 -640
189 -1269 640 -1733 196 -201 379 -335 631 -460 341 -170 698 -246 1089 -233
594 20 1123 249 1540 667 418 417 647 946 667 1540 13 391 -63 748 -233 1089
-125 252 -259 435 -460 631 -336 326 -746 535 -1209 614 -93 16 -344 37 -405
34 -19 -1 -62 -3 -95 -5z m465 -108 c391 -67 745 -226 1045 -468 113 -91 288
-274 376 -392 592 -796 582 -1866 -24 -2670 -78 -103 -289 -314 -392 -392
-423 -319 -925 -480 -1430 -460 -557 23 -1061 238 -1454 621 -350 342 -561
745 -648 1241 -24 142 -24 538 0 680 111 631 444 1151 961 1497 265 177 613
310 911 347 50 6 101 13 115 15 60 11 450 -3 540 -19z"/>
</g>
</svg>
